<?xml version="1.0" encoding="utf-8"?>
<!DOCTYPE svg PUBLIC "-//W3C//DTD SVG 1.1//EN" "http://www.w3.org/Graphics/SVG/1.1/DTD/svg11.dtd">
<svg version="1.1" xmlns="http://www.w3.org/2000/svg" xmlns:xlink="http://www.w3.org/1999/xlink" x="0px" y="0px" width="1940px" height="30px" viewBox="0 0 1940 30" enable-background="new 0 0 1940 30" xml:space="preserve">
<g fill="#FFFFFF">
	<rect width="1" height="3"/>
	<rect x="10" width="1" height="3"/>
	<rect x="20" width="1" height="3"/>
	<rect x="30" width="1" height="3"/>
	<rect x="40" width="1" height="3"/>
	<rect x="50" width="1" height="3"/>
	<rect x="60" width="1" height="3"/>
	<rect x="70" width="1" height="3"/>
	<rect x="80" width="1" height="3"/>
	<rect x="90" width="1" height="3"/>
	<rect x="100" width="1" height="3"/>
	<rect x="110" width="1" height="3"/>
	<rect x="120" width="1" height="3"/>
	<rect x="130" width="1" height="3"/>
	<rect x="140" width="1" height="3"/>
	<rect x="150" width="1" height="3"/>
	<rect x="160" width="1" height="3"/>
	<rect x="170" width="1" height="3"/>
	<rect x="180" width="1" height="3"/>
	<rect x="190" width="1" height="3"/>
	<rect x="200" width="1" height="3"/>
	<rect x="210" width="1" height="3"/>
	<rect x="220" width="1" height="3"/>
	<rect x="230" width="1" height="3"/>
	<rect x="240" width="1" height="3"/>
	<rect x="250" width="1" height="3"/>
	<rect x="260" width="1" height="3"/>
	<rect x="270" width="1" height="3"/>
	<rect x="280" width="1" height="3"/>
	<rect x="290" width="1" height="3"/>
	<rect x="300" width="1" height="3"/>
	<rect x="310" width="1" height="3"/>
	<rect x="320" width="1" height="3"/>
	<rect x="330" width="1" height="3"/>
	<rect x="340" width="1" height="3"/>
	<rect x="350" width="1" height="3"/>
	<rect x="360" width="1" height="3"/>
	<rect x="370" width="1" height="3"/>
	<rect x="380" width="1" height="3"/>
	<rect x="390" width="1" height="3"/>
	<rect x="400" width="1" height="3"/>
	<rect x="410" width="1" height="3"/>
	<rect x="420" width="1" height="3"/>
	<rect x="430" width="1" height="3"/>
	<rect x="440" width="1" height="3"/>
	<rect x="450" width="1" height="3"/>
	<rect x="460" width="1" height="3"/>
	<rect x="470" width="1" height="3"/>
	<rect x="480" width="1" height="3"/>
	<rect x="490" width="1" height="3"/>
	<rect x="500" width="1" height="3"/>
	<rect x="510" width="1" height="3"/>
	<rect x="520" width="1" height="3"/>
	<rect x="530" width="1" height="3"/>
	<rect x="540" width="1" height="3"/>
	<rect x="550" width="1" height="3"/>
	<rect x="560" width="1" height="3"/>
	<rect x="570" width="1" height="3"/>
	<rect x="580" width="1" height="3"/>
	<rect x="590" width="1" height="3"/>
	<rect x="600" width="1" height="3"/>
	<rect x="610" width="1" height="3"/>
	<rect x="620" width="1" height="3"/>
	<rect x="630" width="1" height="3"/>
	<rect x="640" width="1" height="3"/>
	<rect x="650" width="1" height="3"/>
	<rect x="660" width="1" height="3"/>
	<rect x="670" width="1" height="3"/>
	<rect x="680" width="1" height="3"/>
	<rect x="690" width="1" height="3"/>
	<rect x="700" width="1" height="3"/>
	<rect x="710" width="1" height="3"/>
	<rect x="720" width="1" height="3"/>
	<rect x="730" width="1" height="3"/>
	<rect x="740" width="1" height="3"/>
	<rect x="750" width="1" height="3"/>
	<rect x="760" width="1" height="3"/>
	<rect x="770" width="1" height="3"/>
	<rect x="780" width="1" height="3"/>
	<rect x="790" width="1" height="3"/>
	<rect x="800" width="1" height="3"/>
	<rect x="810" width="1" height="3"/>
	<rect x="820" width="1" height="3"/>
	<rect x="830" width="1" height="3"/>
	<rect x="840" width="1" height="3"/>
	<rect x="850" width="1" height="3"/>
	<rect x="860" width="1" height="3"/>
	<rect x="870" width="1" height="3"/>
	<rect x="880" width="1" height="3"/>
	<rect x="890" width="1" height="3"/>
	<rect x="900" width="1" height="3"/>
	<rect x="910" width="1" height="3"/>
	<rect x="920" width="1" height="3"/>
	<rect x="930" width="1" height="3"/>
	<rect x="940" width="1" height="3"/>
	<rect x="950" width="1" height="3"/>
	<rect x="960" width="1" height="3"/>
	<rect x="970" width="1" height="3"/>
	<rect x="980" width="1" height="3"/>
	<rect x="990" width="1" height="3"/>
	<rect x="1000" width="1" height="3"/>
	<rect x="1010" width="1" height="3"/>
	<rect x="1020" width="1" height="3"/>
	<rect x="1030" width="1" height="3"/>
	<rect x="1040" width="1" height="3"/>
	<rect x="1050" width="1" height="3"/>
	<rect x="1060" width="1" height="3"/>
	<rect x="1070" width="1" height="3"/>
	<rect x="1080" width="1" height="3"/>
	<rect x="1090" width="1" height="3"/>
	<rect x="1100" width="1" height="3"/>
	<rect x="1110" width="1" height="3"/>
	<rect x="1120" width="1" height="3"/>
	<rect x="1130" width="1" height="3"/>
	<rect x="1140" width="1" height="3"/>
	<rect x="1150" width="1" height="3"/>
	<rect x="1160" width="1" height="3"/>
	<rect x="1170" width="1" height="3"/>
	<rect x="1180" width="1" height="3"/>
	<rect x="1190" width="1" height="3"/>
	<rect x="1200" width="1" height="3"/>
	<rect x="1210" width="1" height="3"/>
	<rect x="1220" width="1" height="3"/>
	<rect x="1230" width="1" height="3"/>
	<rect x="1240" width="1" height="3"/>
	<rect x="1250" width="1" height="3"/>
	<rect x="1260" width="1" height="3"/>
	<rect x="1270" width="1" height="3"/>
	<rect x="1280" width="1" height="3"/>
	<rect x="1290" width="1" height="3"/>
	<rect x="1300" width="1" height="3"/>
	<rect x="1310" width="1" height="3"/>
	<rect x="1320" width="1" height="3"/>
	<rect x="1330" width="1" height="3"/>
	<rect x="1340" width="1" height="3"/>
	<rect x="1350" width="1" height="3"/>
	<rect x="1360" width="1" height="3"/>
	<rect x="1370" width="1" height="3"/>
	<rect x="1380" width="1" height="3"/>
	<rect x="1390" width="1" height="3"/>
	<rect x="1400" width="1" height="3"/>
	<rect x="1410" width="1" height="3"/>
	<rect x="1420" width="1" height="3"/>
	<rect x="1430" width="1" height="3"/>
	<rect x="1440" width="1" height="3"/>
	<rect x="1450" width="1" height="3"/>
	<rect x="1460" width="1" height="3"/>
	<rect x="1470" width="1" height="3"/>
	<rect x="1480" width="1" height="3"/>
	<rect x="1490" width="1" height="3"/>
	<rect x="1500" width="1" height="3"/>
	<rect x="1510" width="1" height="3"/>
	<rect x="1520" width="1" height="3"/>
	<rect x="1530" width="1" height="3"/>
	<rect x="1540" width="1" height="3"/>
	<rect x="1550" width="1" height="3"/>
	<rect x="1560" width="1" height="3"/>
	<rect x="1570" width="1" height="3"/>
	<rect x="1580" width="1" height="3"/>
	<rect x="1590" width="1" height="3"/>
	<rect x="1600" width="1" height="3"/>
	<rect x="1610" width="1" height="3"/>
	<rect x="1620" width="1" height="3"/>
	<rect x="1630" width="1" height="3"/>
	<rect x="1640" width="1" height="3"/>
	<rect x="1650" width="1" height="3"/>
	<rect x="1660" width="1" height="3"/>
	<rect x="1670" width="1" height="3"/>
	<rect x="1680" width="1" height="3"/>
	<rect x="1690" width="1" height="3"/>
	<rect x="1700" width="1" height="3"/>
	<rect x="1710" width="1" height="3"/>
	<rect x="1720" width="1" height="3"/>
	<rect x="1730" width="1" height="3"/>
	<rect x="1740" width="1" height="3"/>
	<rect x="1750" width="1" height="3"/>
	<rect x="1760" width="1" height="3"/>
	<rect x="1770" width="1" height="3"/>
	<rect x="1780" width="1" height="3"/>
	<rect x="1790" width="1" height="3"/>
	<rect x="1600" width="1" height="3"/>
	<rect x="1610" width="1" height="3"/>
	<rect x="1620" width="1" height="3"/>
	<rect x="1630" width="1" height="3"/>
	<rect x="1640" width="1" height="3"/>
	<rect x="1650" width="1" height="3"/>
	<rect x="1660" width="1" height="3"/>
	<rect x="1670" width="1" height="3"/>
	<rect x="1680" width="1" height="3"/>
	<rect x="1690" width="1" height="3"/>
	<rect x="1700" width="1" height="3"/>
	<rect x="1710" width="1" height="3"/>
	<rect x="1720" width="1" height="3"/>
	<rect x="1730" width="1" height="3"/>
	<rect x="1740" width="1" height="3"/>
	<rect x="1750" width="1" height="3"/>
	<rect x="1760" width="1" height="3"/>
	<rect x="1770" width="1" height="3"/>
	<rect x="1780" width="1" height="3"/>
	<rect x="1790" width="1" height="3"/>
	<rect x="1800" width="1" height="3"/>
	<rect x="1800" width="1" height="3"/>
	<rect x="1810" width="1" height="3"/>
	<rect x="1820" width="1" height="3"/>
	<rect x="1830" width="1" height="3"/>
	<rect x="1840" width="1" height="3"/>
	<rect x="1850" width="1" height="3"/>
	<rect x="1860" width="1" height="3"/>
	<rect x="1810" width="1" height="3"/>
	<rect x="1820" width="1" height="3"/>
	<rect x="1830" width="1" height="3"/>
	<rect x="1840" width="1" height="3"/>
	<rect x="1850" width="1" height="3"/>
	<rect x="1860" width="1" height="3"/>
	<rect x="1870" width="1" height="3"/>
	<rect x="1870" width="1" height="3"/>
	<rect x="1880" width="1" height="3"/>
	<rect x="1890" width="1" height="3"/>
	<rect x="1900" width="1" height="3"/>
	<rect x="1880" width="1" height="3"/>
	<rect x="1890" width="1" height="3"/>
	<rect x="1900" width="1" height="3"/>
	<rect x="1910" width="1" height="3"/>
	<rect x="1910" width="1" height="3"/>
</g>
<g fill="#FFFFFF">
	<rect x="240" width="1" height="10"/>
	<rect x="320" width="1" height="10"/>
	<rect x="360" width="1" height="10"/>
	<rect x="480" width="1" height="10"/>
	<rect x="540" width="1" height="10"/>
	<rect x="576" width="1" height="10"/>
	<rect x="600" width="1" height="10"/>
	<rect x="640" width="1" height="10"/>
	<rect x="720" width="1" height="10"/>
	<rect x="768" width="1" height="10"/>
	<rect x="800" width="1" height="10"/>
	<rect x="980" width="1" height="10"/>
	<rect x="1024" width="1" height="10"/>
	<rect x="1080" width="1" height="10"/>
	<rect x="1280" width="1" height="10"/>
	<rect x="1366" width="1" height="10"/>
	<rect x="1600" width="1" height="10"/>
	<rect x="1920" width="1" height="10"/>
</g>
<g fill="#FFFFFF">
	<text transform="matrix(1 0 0 1 0.6082 24.4395)" font-family="Arial" font-size="11">0</text>
	<text transform="matrix(1 0 0 1 231.8233 24.4395)" font-family="Arial" font-size="11">240</text>
	<text transform="matrix(1 0 0 1 311.8233 24.4395)" font-family="Arial" font-size="11">320</text>
	<text transform="matrix(1 0 0 1 350.8233 24.4395)" font-family="Arial" font-size="11">360</text>
	<text transform="matrix(1 0 0 1 471.8233 24.4395)" font-family="Arial" font-size="11">480</text>
	<text transform="matrix(1 0 0 1 530.8234 24.4395)" font-family="Arial" font-size="11">540</text>
	<text transform="matrix(1 0 0 1 567.8234 24.4395)" font-family="Arial" font-size="11">576</text>
	<text transform="matrix(1 0 0 1 590.8234 24.4395)" font-family="Arial" font-size="11">600</text>
	<text transform="matrix(1 0 0 1 630.8234 24.4395)" font-family="Arial" font-size="11">640</text>
	<text transform="matrix(1 0 0 1 711.8234 24.4395)" font-family="Arial" font-size="11">720</text>
	<text transform="matrix(1 0 0 1 759.8234 24.4395)" font-family="Arial" font-size="11">768</text>
	<text transform="matrix(1 0 0 1 791.8233 24.4395)" font-family="Arial" font-size="11">800</text>
	<text transform="matrix(1 0 0 1 970.8234 24.4395)" font-family="Arial" font-size="11">980</text>
	<text transform="matrix(1 0 0 1 1011.7648 24.4395)" font-family="Arial" font-size="11">1024</text>
	<text transform="matrix(1 0 0 1 1068.7648 24.4395)" font-family="Arial" font-size="11">1080</text>
	<text transform="matrix(1 0 0 1 1267.765 24.4395)" font-family="Arial" font-size="11">1280</text>
	<text transform="matrix(1 0 0 1 1353.7646 24.4395)" font-family="Arial" font-size="11">1366</text>
	<text transform="matrix(1 0 0 1 1587.7646 24.4395)" font-family="Arial" font-size="11">1600</text>
	<text transform="matrix(1 0 0 1 1908.7648 24.4395)" font-family="Arial" font-size="11">1920</text>
</g>
</svg>
